<?xml version="1.0" encoding="utf-8"?>
<!-- Generator: Adobe Illustrator 19.0.0, SVG Export Plug-In . SVG Version: 6.00 Build 0)  -->
<svg version="1.1" id="Capa_1" xmlns="http://www.w3.org/2000/svg" xmlns:xlink="http://www.w3.org/1999/xlink" x="0px" y="0px"
	 viewBox="0 0 388.2 336.2" style="enable-background:new 0 0 388.2 336.2;" xml:space="preserve">
<g>
	<path d="M220.9,257.4h-53.6l-0.4-0.7L77,101l26.8-46.4h180.6l26.8,46.4l-0.4,0.7L220.9,257.4z M168.9,254.5h50.3L307.9,101
		l-25.1-43.6H105.5L80.3,101L168.9,254.5z"/>
</g>
<g>
	<g>
		<polygon points="247.3,336.2 140.9,336.2 105.5,274.8 108,273.4 142.6,333.3 245.6,333.3 280.2,273.4 282.7,274.8 		"/>
	</g>
	<g>
		<polygon points="35.4,153.5 0,92.1 53.2,0 124.1,0 124.1,2.9 54.9,2.9 3.3,92.1 37.9,152.1 		"/>
	</g>
	<g>
		<polygon points="352.7,153.5 350.3,152.1 384.9,92.1 333.3,2.9 264.1,2.9 264.1,0 335,0 388.2,92.1 		"/>
	</g>
</g>
<g>
	<path d="M196.6,144.2l-1,9.9h-12.4l-1.1-15.8l13-7.5h6.9v-12.8h-15.7v10.1h-15.7V112l13-7.5h21.1l13,7.5v24.7l-13,7.5H196.6z
		 M178.7,186.5v-21.3H200v21.3H178.7z"/>
</g>
</svg>
